<svg width="16" height="16" viewBox="0 0 16 16" fill="none" xmlns="http://www.w3.org/2000/svg">
<path d="M3.75 13.75C3.41848 13.75 3.10054 13.6183 2.86612 13.3839C2.6317 13.1495 2.5 12.8315 2.5 12.5V2.5C2.5 2.16848 2.6317 1.85054 2.86612 1.61612C3.10054 1.3817 3.41848 1.25 3.75 1.25H8.75C8.94785 1.24968 9.1438 1.2885 9.32658 1.36423C9.50936 1.43996 9.67535 1.5511 9.815 1.69125L12.0575 3.93375C12.198 4.07344 12.3095 4.23959 12.3854 4.4226C12.4614 4.60561 12.5003 4.80186 12.5 5V12.5C12.5 12.8315 12.3683 13.1495 12.1339 13.3839C11.8995 13.6183 11.5815 13.75 11.25 13.75H3.75Z" stroke="#155DFC" stroke-width="1.25" stroke-linecap="round" stroke-linejoin="round"/>
<path d="M8.75 1.25V4.375C8.75 4.54076 8.81585 4.69973 8.93306 4.81694C9.05027 4.93415 9.20924 5 9.375 5H12.5" stroke="#155DFC" stroke-width="1.25" stroke-linecap="round" stroke-linejoin="round"/>
<path d="M6.25 5.625H5" stroke="#155DFC" stroke-width="1.25" stroke-linecap="round" stroke-linejoin="round"/>
<path d="M10 8.125H5" stroke="#155DFC" stroke-width="1.25" stroke-linecap="round" stroke-linejoin="round"/>
<path d="M10 10.625H5" stroke="#155DFC" stroke-width="1.25" stroke-linecap="round" stroke-linejoin="round"/>
<g clip-path="url(#clip0_673_237)">
<path d="M8.25 12C8.25 9.92893 9.92893 8.25 12 8.25C14.0711 8.25 15.75 9.92893 15.75 12C15.75 14.0711 14.0711 15.75 12 15.75C9.92893 15.75 8.25 14.0711 8.25 12Z" fill="white"/>
<path d="M12 12.9375V9.1875" stroke="#155DFC" stroke-width="0.625" stroke-linecap="round" stroke-linejoin="round"/>
<path d="M14.8125 12.9375V14.1875C14.8125 14.3533 14.7467 14.5122 14.6294 14.6294C14.5122 14.7467 14.3533 14.8125 14.1875 14.8125H9.8125C9.64674 14.8125 9.48777 14.7467 9.37056 14.6294C9.25335 14.5122 9.1875 14.3533 9.1875 14.1875V12.9375" stroke="#155DFC" stroke-width="0.625" stroke-linecap="round" stroke-linejoin="round"/>
<path d="M10.4375 11.375L12 12.9375L13.5625 11.375" stroke="#155DFC" stroke-width="0.625" stroke-linecap="round" stroke-linejoin="round"/>
</g>
<defs>
<clipPath id="clip0_673_237">
<path d="M8.25 12C8.25 9.92893 9.92893 8.25 12 8.25C14.0711 8.25 15.75 9.92893 15.75 12C15.75 14.0711 14.0711 15.75 12 15.75C9.92893 15.75 8.25 14.0711 8.25 12Z" fill="white"/>
</clipPath>
</defs>
</svg>
