<svg width="192" height="221" viewBox="0 0 192 221" fill="none" xmlns="http://www.w3.org/2000/svg">
<path d="M20.6403 14.916L49.3998 18.7152L71.4243 21.9346H84.1498L124.562 14.916H170.673C179.975 14.916 187.514 23.7777 187.514 34.7086L191.019 81.651L184.515 152.88V200.384C184.515 211.315 176.976 220.176 167.675 220.176L127.56 215.412H49.3998L17.642 220.176C8.34061 220.176 0.801655 211.314 0.801655 200.384C0.801655 200.384 -1.00207 185.154 0.801655 160.44C2.1598 141.821 7.23392 115.686 7.23392 97.8793C7.23392 56.9452 3.79996 34.7086 3.79996 34.7086C3.79996 23.7777 11.3397 14.916 20.6403 14.916Z" fill="#7CC467"/>
<path d="M117.965 182.193V171.151C117.965 170.324 117.815 169.61 117.516 169.011C117.216 168.412 116.76 167.948 116.146 167.62C115.547 167.292 114.791 167.128 113.878 167.128C113.036 167.128 112.308 167.271 111.695 167.556C111.082 167.841 110.604 168.227 110.261 168.712C109.919 169.197 109.748 169.746 109.748 170.359H104.612C104.612 169.446 104.833 168.562 105.275 167.706C105.717 166.85 106.359 166.087 107.201 165.416C108.043 164.746 109.049 164.218 110.218 163.832C111.388 163.447 112.701 163.255 114.156 163.255C115.896 163.255 117.437 163.547 118.778 164.132C120.133 164.717 121.196 165.602 121.967 166.786C122.751 167.955 123.144 169.425 123.144 171.194V181.487C123.144 182.543 123.215 183.491 123.358 184.333C123.515 185.161 123.736 185.881 124.021 186.495V186.837H118.735C118.493 186.281 118.3 185.574 118.158 184.718C118.029 183.848 117.965 183.006 117.965 182.193ZM118.714 172.756L118.757 175.945H115.055C114.099 175.945 113.257 176.037 112.53 176.223C111.802 176.394 111.196 176.651 110.711 176.993C110.226 177.336 109.862 177.749 109.619 178.234C109.377 178.719 109.255 179.269 109.255 179.882C109.255 180.496 109.398 181.059 109.683 181.573C109.969 182.072 110.382 182.464 110.925 182.75C111.481 183.035 112.151 183.178 112.936 183.178C113.992 183.178 114.912 182.964 115.697 182.536C116.496 182.093 117.123 181.558 117.58 180.931C118.036 180.289 118.279 179.682 118.307 179.112L119.977 181.401C119.805 181.986 119.513 182.614 119.099 183.285C118.685 183.955 118.143 184.597 117.473 185.211C116.817 185.81 116.025 186.302 115.097 186.687C114.184 187.072 113.129 187.265 111.93 187.265C110.418 187.265 109.07 186.965 107.886 186.366C106.702 185.753 105.774 184.932 105.104 183.905C104.433 182.864 104.098 181.687 104.098 180.374C104.098 179.147 104.326 178.063 104.783 177.122C105.254 176.166 105.939 175.367 106.837 174.725C107.75 174.083 108.863 173.598 110.176 173.27C111.488 172.927 112.986 172.756 114.669 172.756H118.714ZM133.212 168.391V186.837H128.054V163.683H132.912L133.212 168.391ZM132.377 174.404L130.622 174.382C130.622 172.785 130.822 171.308 131.221 169.953C131.621 168.597 132.206 167.42 132.976 166.422C133.747 165.409 134.702 164.631 135.844 164.089C136.999 163.533 138.333 163.255 139.845 163.255C140.901 163.255 141.864 163.412 142.734 163.726C143.619 164.025 144.382 164.503 145.024 165.159C145.68 165.816 146.18 166.657 146.522 167.684C146.879 168.712 147.057 169.953 147.057 171.408V186.837H141.9V171.857C141.9 170.73 141.729 169.846 141.386 169.204C141.058 168.562 140.58 168.105 139.952 167.834C139.339 167.549 138.604 167.406 137.748 167.406C136.778 167.406 135.951 167.592 135.266 167.963C134.595 168.334 134.046 168.84 133.618 169.482C133.19 170.124 132.876 170.866 132.677 171.707C132.477 172.549 132.377 173.448 132.377 174.404ZM146.736 173.034L144.318 173.569C144.318 172.171 144.51 170.852 144.896 169.61C145.295 168.355 145.873 167.256 146.629 166.315C147.399 165.359 148.348 164.61 149.475 164.068C150.602 163.526 151.893 163.255 153.348 163.255C154.533 163.255 155.588 163.419 156.516 163.747C157.457 164.061 158.256 164.56 158.912 165.245C159.569 165.93 160.068 166.821 160.41 167.92C160.753 169.004 160.924 170.317 160.924 171.857V186.837H155.745V171.836C155.745 170.666 155.574 169.76 155.232 169.118C154.903 168.476 154.433 168.034 153.819 167.791C153.206 167.535 152.471 167.406 151.615 167.406C150.816 167.406 150.11 167.556 149.497 167.856C148.897 168.141 148.391 168.548 147.977 169.075C147.563 169.589 147.25 170.181 147.036 170.852C146.836 171.522 146.736 172.25 146.736 173.034Z" fill="white"/>
<path d="M121.1 0.719845C116.434 2.51731 114.685 4.01624 113.811 6.41392L111.186 8.81081L108.562 9.71032C106.812 10.9092 104.48 13.6069 101.856 16.6032C99.8149 19.0009 98.3566 20.1998 96.6079 20.7992L95.7328 21.998L94.8585 24.6958L93.9833 27.0935L94.5665 27.9922L92.5258 29.4903C91.3595 30.3899 89.0269 32.4874 87.2775 33.9864L83.1954 37.883L81.4452 40.58C80.5708 42.3782 77.6558 46.5742 75.0312 49.8706L73.5737 51.9681L70.0748 56.1641L67.4503 60.36L65.9927 63.3571C63.6601 65.7548 52.289 82.8378 50.5388 86.135L48.207 90.0308C47.3319 90.9295 45.2912 93.9274 43.8329 96.3243C40.9172 101.12 39.4597 102.918 37.711 102.918C34.2113 103.517 30.4212 105.015 29.2549 106.215C27.5046 108.013 27.7966 109.811 30.4212 113.108L31.8787 116.404C31.5875 117.004 28.3798 123.597 27.2134 125.096C26.3391 126.895 19.0501 141.879 19.0501 142.479L18.4669 143.678C17.5918 144.876 16.7167 147.574 16.7167 148.772L16.1343 150.87C14.968 152.369 14.3841 153.568 13.2185 157.164C10.594 165.256 9.42766 171.25 9.71962 178.443C10.0108 182.939 10.3028 185.936 11.4691 189.233C13.2185 194.028 16.7175 198.523 19.9244 200.622L23.1314 202.719C26.3391 204.817 30.4212 205.716 35.9607 206.016C39.4597 206.016 43.2498 205.716 44.9992 205.117L46.4575 203.019L49.3733 201.52C50.2476 202.12 52.289 202.12 55.496 201.82L58.9949 200.321L61.9107 198.523L65.1176 195.826L68.3254 193.128C70.366 192.529 74.74 189.232 77.0727 186.835L80.2796 184.138L83.4866 182.339C88.735 178.144 89.6101 177.544 90.1932 177.544L91.6507 176.645L92.5258 174.247L93.9833 171.25L97.4823 168.852L100.981 165.856C101.856 164.657 103.605 162.859 104.772 161.36C108.853 156.865 111.769 153.268 113.519 151.171C114.977 149.072 114.977 148.473 115.268 146.675L117.892 142.778C119.35 142.179 120.224 140.981 122.849 135.586C125.765 129.592 126.93 125.096 126.93 120.6C126.93 114.606 125.182 109.211 121.974 105.316C117.309 99.6215 111.478 96.025 103.022 94.2267C97.4823 93.0279 83.7785 93.0279 79.4053 94.5261L77.3639 94.8262L77.947 93.3272L79.4045 90.0308C79.9877 87.6331 80.5708 86.7344 86.9863 78.3425C91.3595 72.9478 96.0247 66.9536 101.272 60.6601C103.897 57.3629 104.771 56.1641 105.063 55.2653L107.979 51.9681C110.02 51.0694 112.352 48.3716 113.227 46.2741C113.811 44.4758 115.268 42.3774 116.726 41.4787L119.641 39.3811L122.266 36.9835C124.307 35.7846 126.931 33.387 128.389 31.2886C129.847 29.191 130.139 28.8909 132.763 27.6929L134.803 26.494L136.261 24.9951L139.469 24.0964L142.967 22.5974L142.384 20.1998L141.509 16.3031L140.635 12.108C139.177 10.0104 136.553 7.01334 133.928 4.91498L131.304 2.51731L129.847 2.21798L127.514 1.61857C125.764 -0.180475 123.723 -0.478997 121.1 0.719054M100.981 107.113C104.188 107.712 105.646 109.81 106.23 113.707V115.804L105.354 116.104L104.188 117.903C103.897 120 101.856 125.994 100.397 128.691C98.6486 132.288 93.109 140.68 90.1932 144.576C89.0269 146.374 86.1111 149.371 84.0697 151.769C82.0291 153.866 80.2796 156.265 79.9884 156.864L78.8214 158.962L77.0727 160.761L73.5737 164.057C72.1155 164.956 70.366 166.454 69.1997 167.353L65.9927 170.65C65.1176 171.549 62.785 173.947 60.7444 175.745C58.4118 177.843 56.3711 179.642 56.0792 180.241L54.0385 181.739C53.1634 182.039 50.8308 183.837 48.4982 185.336C41.5003 190.131 36.8351 192.229 33.6281 192.229C31.0043 192.229 30.1292 190.73 30.4212 185.635C30.4212 182.339 31.2955 177.544 32.4618 173.348C33.6281 169.451 33.9201 168.552 35.0864 167.653L35.6696 166.155V163.757L36.8359 161.359L37.7094 159.562L38.5846 156.865L39.1677 155.066L38.2926 154.467L38.0014 153.568L39.1677 153.268L42.0827 149.072C46.1648 140.981 47.3311 138.583 49.9549 134.087C54.3289 126.595 56.9535 122.399 57.8278 121.8C58.9941 120.9 74.1561 114.307 79.1125 112.208C85.2353 109.811 90.7756 107.713 92.5251 107.413L95.1489 106.814C96.8983 106.514 98.6478 106.514 100.98 107.114" fill="white"/>
<path d="M2.5526 46.0332C2.5526 46.0332 9.24017 102.496 0.242188 139.788C2.91109 77.4449 2.5526 46.0332 2.5526 46.0332Z" fill="#60A34E"/>
</svg>
